<?xml version="1.0" standalone="no"?>
<!DOCTYPE svg PUBLIC "-//W3C//DTD SVG 20010904//EN"
 "http://www.w3.org/TR/2001/REC-SVG-20010904/DTD/svg10.dtd">
<svg version="1.0" xmlns="http://www.w3.org/2000/svg"
 width="512.000000pt" height="512.000000pt" viewBox="0 0 512.000000 512.000000"
 preserveAspectRatio="xMidYMid meet">

<g transform="translate(0.000000,512.000000) scale(0.100000,-0.100000)"
fill="#000000" stroke="none">
<path d="M530 4761 c-73 -23 -135 -75 -173 -145 -22 -41 -22 -45 -25 -593 -3
-610 -4 -596 59 -629 63 -32 140 10 153 84 3 20 6 265 6 544 l0 507 22 15 c20
14 89 16 554 16 l531 0 26 26 c35 34 43 83 23 123 -33 62 -21 61 -613 60 -296
0 -549 -4 -563 -8z"/>
<path d="M3494 4760 c-63 -25 -84 -115 -40 -167 l24 -28 545 -5 c441 -4 547
-8 560 -19 15 -12 17 -63 17 -543 0 -582 -1 -571 61 -604 43 -22 91 -11 123
27 l26 31 0 556 0 557 -24 51 c-13 27 -43 67 -67 87 -77 67 -81 67 -673 66
-292 0 -541 -4 -552 -9z"/>
<path d="M2188 3590 c-95 -16 -137 -56 -268 -255 -51 -77 -97 -144 -102 -150
-5 -6 -99 -12 -221 -15 l-212 -5 -54 -30 c-56 -31 -106 -88 -128 -148 -8 -23
-12 -208 -12 -668 -1 -696 -2 -687 58 -760 16 -19 53 -48 82 -64 l54 -30 1169
-3 c1300 -3 1233 -6 1315 65 24 20 54 59 67 87 l24 51 0 650 0 650 -24 51
c-13 27 -43 67 -67 87 -67 57 -114 67 -330 67 l-188 0 -26 33 c-14 17 -69 97
-123 177 -109 163 -145 193 -247 210 -71 12 -699 11 -767 0z m758 -218 c6 -4
60 -81 121 -172 161 -239 151 -233 436 -240 202 -5 220 -6 233 -25 12 -16 14
-114 12 -629 l-3 -610 -25 -13 c-20 -10 -257 -12 -1158 -10 -1109 2 -1134 2
-1148 21 -12 17 -14 117 -14 620 0 331 4 606 8 613 16 26 69 33 248 33 264 0
272 5 425 232 56 84 109 161 117 171 14 16 45 17 376 17 199 0 366 -4 372 -8z"/>
<path d="M2464 2945 c-205 -44 -366 -207 -409 -412 -18 -86 -18 -130 0 -218
38 -182 164 -326 345 -394 93 -35 246 -36 343 -3 174 61 301 199 347 378 24
92 25 145 5 239 -43 205 -205 366 -412 410 -82 18 -138 18 -219 0z m231 -226
c75 -28 146 -100 175 -175 81 -219 -66 -436 -297 -436 -172 0 -301 121 -311
294 -9 151 68 272 205 323 58 21 163 19 228 -6z"/>
<path d="M368 1641 l-33 -29 -3 -543 c-2 -482 -1 -549 14 -596 21 -67 71 -125
136 -157 l52 -26 558 0 558 0 32 29 c28 25 33 36 33 75 0 36 -6 51 -28 73
l-27 28 -543 5 c-298 3 -548 9 -554 13 -10 6 -13 123 -13 525 0 324 -4 531
-10 554 -22 79 -111 104 -172 49z"/>
<path d="M4650 1657 c-51 -40 -50 -22 -50 -593 0 -502 -1 -532 -18 -547 -17
-15 -69 -17 -546 -17 -572 0 -569 0 -594 -55 -21 -47 -15 -94 17 -126 l30 -29
568 2 c634 3 601 0 676 75 75 75 72 42 75 676 l2 568 -29 30 c-24 23 -38 29
-73 29 -24 0 -50 -6 -58 -13z"/>
</g>
</svg>
